HIERARCHY
ROOT Hips
{
    OFFSET 0.000000 0.000000 0.000000
    CHANNELS 6 Xposition Yposition Zposition Zrotation Xrotation Yrotation
    JOINT Spine
    {
        OFFSET -0.000000 14.517291 0.000000
        CHANNELS 3 Zrotation Xrotation Yrotation
        JOINT Spine1
        {
            OFFSET -0.000000 37.558300 0.000000
            CHANNELS 3 Zrotation Xrotation Yrotation
            JOINT Neck
            {
                OFFSET -0.000000 37.404057 3.400369
                CHANNELS 3 Zrotation Xrotation Yrotation
                JOINT Head
                {
                    OFFSET -0.000000 24.785618 -3.540803
                    CHANNELS 3 Zrotation Xrotation Yrotation
                    End Site
                    {
                        OFFSET -0.000000 35.408028 0.000000
                    }
                }
            }
            JOINT LeftShoulder
            {
                OFFSET 6.992933 33.973492 -0.192664
                CHANNELS 3 Zrotation Xrotation Yrotation
                JOINT LeftArm
                {
                    OFFSET 21.527611 0.000000 0.000000
                    CHANNELS 3 Zrotation Xrotation Yrotation
                    JOINT LeftForeArm
                    {
                        OFFSET 56.353916 0.000000 0.000000
                        CHANNELS 3 Zrotation Xrotation Yrotation
                        JOINT LeftHand
                        {
                            OFFSET 47.774071 0.000000 0.000000
                            CHANNELS 3 Zrotation Xrotation Yrotation
                            End Site
                            {
                                OFFSET 26.556021 0.000000 0.000000
                            }
                        }
                    }
                }
            }
            JOINT RightShoulder
            {
                OFFSET -7.065357 33.973492 -0.192664
                CHANNELS 3 Zrotation Xrotation Yrotation
                JOINT RightArm
                {
                    OFFSET -21.527611 0.000000 0.000000
                    CHANNELS 3 Zrotation Xrotation Yrotation
                    JOINT RightForeArm
                    {
                        OFFSET -56.353916 0.000000 0.000000
                        CHANNELS 3 Zrotation Xrotation Yrotation
                        JOINT RightHand
                        {
                            OFFSET -47.774071 0.000000 0.000000
                            CHANNELS 3 Zrotation Xrotation Yrotation
                            End Site
                            {
                                OFFSET -26.556021 0.000000 0.000000
                            }
                        }
                    }
                }
            }
        }
    }
    JOINT LeftUpLeg
    {
        OFFSET 17.704014 0.000000 0.000000
        CHANNELS 3 Zrotation Xrotation Yrotation
        JOINT LeftLeg
        {
            OFFSET -0.000000 -81.181816 0.000000
            CHANNELS 3 Zrotation Xrotation Yrotation
            JOINT LeftFoot
            {
                OFFSET -0.000000 -62.821102 0.000000
                CHANNELS 3 Zrotation Xrotation Yrotation
                JOINT LeftToeBase
                {
                    OFFSET -0.000000 -11.507608 26.556021
                    CHANNELS 3 Zrotation Xrotation Yrotation
                    End Site
                    {
                        OFFSET -0.000000 0.000000 7.081605
                    }
                }
            }
        }
    }
    JOINT RightUpLeg
    {
        OFFSET -17.704014 0.000000 0.000000
        CHANNELS 3 Zrotation Xrotation Yrotation
        JOINT RightLeg
        {
            OFFSET -0.000000 -81.181816 0.000000
            CHANNELS 3 Zrotation Xrotation Yrotation
            JOINT RightFoot
            {
                OFFSET -0.000000 -62.821102 0.000000
                CHANNELS 3 Zrotation Xrotation Yrotation
                JOINT RightToeBase
                {
                    OFFSET -0.000000 -11.507608 26.556021
                    CHANNELS 3 Zrotation Xrotation Yrotation
                    End Site
                    {
                        OFFSET -0.000000 0.000000 7.081605
                    }
                }
            }
        }
    }
}
MOTION
Frames:    5
Frame Time:    0.008333
-13.758042    151.821976    -98.518227    1.253533    -3.782852    44.015854    -2.917959    -0.308920    -0.046272    2.350667    3.137094    -0.077079    -1.506045    4.624083    -20.648300    15.848967    0.035195    -19.188679    2.701596    7.624358    -14.062321    -35.472012    23.310684    -47.377193    -3.804570    -24.040247    -121.928444    -6.805443    -29.550804    -11.519783    0.877637    16.005234    -6.514009    49.554188    32.965805    50.664375    -23.173941    -17.730183    63.039410    -9.696464    -4.972976    16.907629    16.820478    -4.073742    -5.691935    -18.781853    40.365860    -19.560713    7.362379    -32.004593    52.543476    0.000000    0.000000    0.000000    -22.994457    -17.953352    -24.487160    8.519129    27.312956    -15.441836    4.112464    5.252056    -8.062961    0.000000    0.000000    0.000000    
-13.747108    151.822052    -98.518478    1.255448    -3.779328    44.011166    -2.914415    -0.302380    -0.046046    2.346614    3.119857    -0.078892    -1.522636    4.635994    -20.646873    15.880150    0.023436    -19.179688    2.687715    7.625472    -14.052775    -35.463989    23.326508    -47.388420    -3.794852    -24.073322    -121.917839    -6.820385    -29.564148    -11.523377    0.878162    16.008476    -6.505360    49.525112    32.947758    50.665482    -23.127840    -17.667856    63.084179    -9.693369    -4.927239    16.940069    16.814217    -4.068709    -5.679399    -18.778862    40.364651    -19.552816    7.356312    -32.012798    52.529106    0.000000    0.000000    0.000000    -23.000340    -17.958437    -24.484978    8.516006    27.320669    -15.431400    4.102263    5.251952    -8.075283    0.000000    0.000000    0.000000    
-13.731369    151.821243    -98.514130    1.260884    -3.788894    44.006420    -2.911520    -0.285195    -0.049662    2.357066    3.101502    -0.078373    -1.543426    4.632586    -20.640388    15.901408    0.034502    -19.169195    2.670865    7.619685    -14.050727    -35.485855    23.322206    -47.374424    -3.805370    -24.053461    -121.922340    -6.804023    -29.564487    -11.508384    0.875131    16.023680    -6.502308    49.457809    32.937271    50.673962    -23.069864    -17.614965    63.149349    -9.724369    -4.896332    16.949007    16.813988    -4.052109    -5.676415    -18.776392    40.368080    -19.556498    7.352750    -32.018375    52.524536    0.000000    0.000000    0.000000    -22.995594    -17.944475    -24.457294    8.521561    27.313742    -15.450808    4.093636    5.253296    -8.058578    0.000000    0.000000    0.000000    
-13.714578    151.824036    -98.512604    1.259503    -3.786481    44.005047    -2.901001    -0.293238    -0.049797    2.343586    3.100411    -0.078775    -1.544420    4.628815    -20.643837    15.914620    0.035594    -19.171028    2.670660    7.625443    -14.055022    -35.502216    23.311834    -47.376560    -3.796953    -24.045357    -121.912247    -6.795540    -29.542620    -11.513050    0.890271    16.034838    -6.487148    49.396469    32.923428    50.676659    -23.037378    -17.577826    63.177280    -9.717272    -4.871486    16.971197    16.806849    -4.049640    -5.659750    -18.758562    40.373478    -19.561901    7.347825    -32.020535    52.509289    0.000000    0.000000    0.000000    -23.001375    -17.942226    -24.451235    8.526562    27.314976    -15.420203    4.113005    5.250210    -8.090136    0.000000    0.000000    0.000000    
-13.698961    151.826691    -98.507133    1.265774    -3.789042    44.001694    -2.892837    -0.290788    -0.055955    2.330567    3.096787    -0.079352    -1.567632    4.629367    -20.643351    15.951270    0.046028    -19.164482    2.660478    7.638430    -14.046556    -35.480160    23.328711    -47.394360    -3.772754    -24.097898    -121.904984    -6.797021    -29.553236    -11.517026    0.889468    16.063984    -6.464042    49.327236    32.904362    50.711731    -22.997051    -17.540604    63.191727    -9.715071    -4.857410    17.007210    16.803297    -4.033852    -5.677124    -18.776403    40.362270    -19.553478    7.358541    -32.017433    52.533527    0.000000    0.000000    0.000000    -23.001516    -17.933043    -24.442026    8.521105    27.310671    -15.426323    4.128991    5.248680    -8.093418    0.000000    0.000000    0.000000    
